<?xml version="1.0" standalone="no"?>
<svg xmlns:xlink="http://www.w3.org/1999/xlink" width="128" height="128" viewBox="0 0 6.3500002 6.3500002" id="svg1976" version="1.1" xmlns="http://www.w3.org/2000/svg" xmlns:cc="http://creativecommons.org/ns#" xmlns:dc="http://purl.org/dc/elements/1.1/" xmlns:inkscape="http://www.inkscape.org/namespaces/inkscape" xmlns:rdf="http://www.w3.org/1999/02/22-rdf-syntax-ns#" xmlns:sodipodi="http://sodipodi.sourceforge.net/DTD/sodipodi-0.dtd" xmlns:svg="http://www.w3.org/2000/svg">

<defs id="defs1970" fill="#0077b6" style=""/>

<g id="layer1" style="" fill="#0077b6">

<path d="m 1.1947591,0.7974328 c -0.5810885,0 -1.0588493,0.4751764 -1.0588493,1.0562662 v 1.8500172 c 0,0.5810886 0.4777608,1.0562644 1.0588493,1.0562644 h 3.1698328 c 0.5810911,0 1.0567829,-0.4751758 1.0567829,-1.0562644 V 1.853699 c 0,-0.5810898 -0.4756918,-1.0562662 -1.0567829,-1.0562662 z M 1.5130872,1.8500819 H 4.0441973 A 0.2645835,0.2645835 0 0 1 4.3098152,2.1136315 0.2645835,0.2645835 0 0 1 4.0441973,2.3771814 H 1.5130872 A 0.2645835,0.2645835 0 0 1 1.2495358,2.1136315 0.2645835,0.2645835 0 0 1 1.5130872,1.8500819 Z m 0,1.0562661 h 1.588016 A 0.2645835,0.2645835 0 0 1 3.364652,3.1719648 0.2645835,0.2645835 0 0 1 3.1011032,3.436032 H 1.5130872 A 0.2645835,0.2645835 0 0 1 1.2495358,3.1719648 0.2645835,0.2645835 0 0 1 1.5130872,2.906348 Z" id="rect810" style="" fill="#0077b6"/>

<path d="M 0.6650765,4.9424002 V 6.0803149 A 0.26460996,0.26460996 0 0 0 1.1027767,6.2813348 L 2.5993262,4.9982088 H 1.0045898 c -0.1186127,0 -0.2311268,-0.022966 -0.3395133,-0.055809 z" id="path812" style="" fill="#0077b6"/>

<path d="m 1.9854082,0.0041995 c -0.3922951,0 -0.7324275,0.2193454 -0.9146725,0.5389851 h 3.496945 c 0.6555397,0 1.1921755,0.5366253 1.1921755,1.1921755 V 3.7750294 C 6.0332264,3.5835213 6.2140903,3.2676194 6.2140903,2.9104822 V 1.0609827 c 0,-0.5810901 -0.4757024,-1.0567832 -1.0567829,-1.0567832 z" id="path814" style="" fill="#0077b6"/>

</g>

</svg>